<?xml version="1.0" encoding="utf-8"?>
<!-- Generator: Adobe Illustrator 25.4.1, SVG Export Plug-In . SVG Version: 6.00 Build 0)  -->
<!DOCTYPE svg PUBLIC "-//W3C//DTD SVG 1.1//EN" "http://www.w3.org/Graphics/SVG/1.1/DTD/svg11.dtd" [
	<!ENTITY ns_extend "http://ns.adobe.com/Extensibility/1.0/">
	<!ENTITY ns_ai "http://ns.adobe.com/AdobeIllustrator/10.0/">
	<!ENTITY ns_graphs "http://ns.adobe.com/Graphs/1.0/">
	<!ENTITY ns_vars "http://ns.adobe.com/Variables/1.0/">
	<!ENTITY ns_imrep "http://ns.adobe.com/ImageReplacement/1.0/">
	<!ENTITY ns_sfw "http://ns.adobe.com/SaveForWeb/1.0/">
	<!ENTITY ns_custom "http://ns.adobe.com/GenericCustomNamespace/1.0/">
	<!ENTITY ns_adobe_xpath "http://ns.adobe.com/XPath/1.0/">
]>
<svg version="1.1" id="Layer_1" xmlns:x="&ns_extend;" xmlns:i="&ns_ai;" xmlns:graph="&ns_graphs;"
	 xmlns="http://www.w3.org/2000/svg" xmlns:xlink="http://www.w3.org/1999/xlink" x="0px" y="0px" viewBox="0 0 353.6 353.6"
	 style="enable-background:new 0 0 353.6 353.6;" xml:space="preserve">
<style type="text/css">
	.Drop_x0020_Shadow{fill:none;}
	.Outer_x0020_Glow_x0020_5_x0020_pt{fill:none;}
	.Blue_x0020_Neon{fill:none;stroke:#8AACDA;stroke-width:7;stroke-linecap:round;stroke-linejoin:round;}
	.Chrome_x0020_Highlight{fill:url(#SVGID_1_);stroke:#FFFFFF;stroke-width:0.3629;stroke-miterlimit:1;}
	.Jive_GS{fill:#FFDD00;}
	.Alyssa_GS{fill:#A6D0E4;}
	.st0{fill:#F2F2F2;}
	.st1{fill:#FFFFFF;}
	.st2{fill:#CCCCCC;}
	.st3{fill:#052256;}
	.st4{fill:#164A89;}
	.st5{fill:#FCFDFF;}
	.st6{fill:#DD8510;}
	.st7{fill:#FEA21D;}
	.st8{fill:#A4DE14;}
	.st9{fill:#78B407;}
	.st10{fill:none;stroke:#FEA21D;stroke-width:4.4677;stroke-linecap:round;stroke-miterlimit:10;}
</style>
<metadata>
	<sfw  xmlns="&ns_sfw;">
		<slices></slices>
		<sliceSourceBounds  bottomLeftOrigin="true" height="345" width="345" x="746" y="-909.2"></sliceSourceBounds>
		<optimizationSettings>
			<targetSettings  fileFormat="PNG24Format" targetSettingsID="0">
				<PNG24Format  filtered="false" interlaced="true" matteColor="#FFFFFF" noMatteColor="false" transparency="true">
					</PNG24Format>
			</targetSettings>
		</optimizationSettings>
	</sfw>
</metadata>
<linearGradient id="SVGID_1_" gradientUnits="userSpaceOnUse" x1="-741.7525" y1="-559.8515" x2="-741.7525" y2="-560.8515">
	<stop  offset="0" style="stop-color:#656565"/>
	<stop  offset="0.618" style="stop-color:#1B1B1B"/>
	<stop  offset="0.6292" style="stop-color:#545454"/>
	<stop  offset="0.9831" style="stop-color:#3E3E3E"/>
</linearGradient>
<g>
	<g>
		<circle class="st0" cx="176.8" cy="176.8" r="172.5"/>
	</g>
	<g>
		<circle class="st1" cx="176.8" cy="176.8" r="148.7"/>
		<path class="st2" d="M176.8,30.3c80.9,0,146.5,65.6,146.5,146.5s-65.6,146.5-146.5,146.5S30.3,257.7,30.3,176.8
			S95.9,30.3,176.8,30.3 M176.8,25.8C136.5,25.8,98.6,41.5,70,70c-28.5,28.5-44.2,66.4-44.2,106.8S41.5,255,70,283.5
			c28.5,28.5,66.4,44.2,106.8,44.2s78.2-15.7,106.8-44.2c28.5-28.5,44.2-66.4,44.2-106.8S312.1,98.6,283.5,70
			C255,41.5,217.1,25.8,176.8,25.8L176.8,25.8z"/>
	</g>
	<g>
		<g>
			<g>
				<path class="st3" d="M68.6,155.4C57.7,212.7,97.8,268.4,158,279.8c60.2,11.4,117.8-25.9,128.6-83.3L68.6,155.4z"/>
				<path class="st4" d="M94.5,160.3c-10.8,57.4,23.4,112,76.5,122c53,10,104.8-28.4,115.6-85.7L94.5,160.3z"/>
				
					<ellipse transform="matrix(0.1785 -0.9839 0.9839 0.1785 -23.8138 317.9402)" class="st5" cx="178.5" cy="173.2" rx="29.4" ry="110.8"/>
				
					<ellipse transform="matrix(0.1785 -0.9839 0.9839 0.1785 -23.8138 317.9402)" class="st6" cx="178.5" cy="173.2" rx="26.2" ry="98.7"/>
				
					<ellipse transform="matrix(0.1785 -0.9839 0.9839 0.1785 -20.6919 323.4409)" class="st7" cx="183.4" cy="174.1" rx="26.2" ry="93.7"/>
				<circle class="st7" cx="176.7" cy="150.5" r="11.4"/>
				<circle class="st7" cx="170.6" cy="148.7" r="11.4"/>
				<path class="st7" d="M106.8,142.3c-0.5-5.5,3-10.7,8.6-12.1c6.1-1.5,12.2,2.2,13.7,8.3c0,0.1,0,0.2,0.1,0.3
					c1.5-2.2,3.8-4,6.7-4.7c3.8-0.9,7.7,0.2,10.4,2.6c0.6-0.3,1.2-0.5,1.8-0.6c4.4-1.1,8.9,0.6,11.6,3.9c0.3-0.1,0.7-0.2,1-0.3
					c2.4-0.6,4.9-0.4,7,0.5c0.4-0.5,0.9-0.9,1.4-1.4c1.1-5.1,5.6-9,11.1-9c6.3,0,11.4,5.1,11.4,11.4c0,0.1,0,0.2,0,0.3
					c2-1.8,4.7-2.9,7.6-2.9c3.9,0,7.4,2,9.4,5c0.6-0.1,1.3-0.2,1.9-0.2c4.6,0,8.5,2.7,10.3,6.6c0.4,0,0.7-0.1,1.1-0.1
					c2.5,0,4.8,0.8,6.7,2.2c1.9-1.4,4.2-2.2,6.7-2.2c6.3,0,11.4,5.1,11.4,11.4c0,6.3-5.1,11.4-11.4,11.4c-2.5,0-4.8-0.8-6.7-2.2
					c-1.9,1.4-4.2,2.2-6.7,2.2c-2.9,0-5.5-1.1-7.5-2.9c-2,1.8-4.6,2.9-7.5,2.9c-6.3,0-11.4-5.1-11.4-11.4c0-0.2,0-0.4,0-0.6
					c-4.5-1.5-7.7-5.8-7.7-10.7c0-0.1,0-0.2,0-0.3c-0.1,0.1-0.2,0.2-0.3,0.3c-0.9,4.1-4,7.6-8.4,8.6c-2.4,0.6-4.9,0.4-7-0.5
					c-1.5,1.8-3.5,3.1-6,3.7c-4.4,1.1-8.9-0.6-11.6-3.9c-0.3,0.1-0.7,0.2-1,0.3c-3.8,0.9-7.7-0.2-10.4-2.6c-0.6,0.3-1.2,0.5-1.8,0.6
					c-6.1,1.5-12.2-2.2-13.7-8.3c0-0.1,0-0.2-0.1-0.3c0,0.1-0.1,0.1-0.1,0.2c0.5,5.5-3,10.7-8.6,12.1c-6.1,1.5-12.2-2.2-13.7-8.3
					C104.2,148.3,105,144.9,106.8,142.3z"/>
			</g>
			<path class="st8" d="M182.5,102.6c-6,16.8-30.8,23.3-30.8,23.3s-15.2-20.7-9.2-37.5c6-16.8,30.8-23.3,30.8-23.3
				S188.4,85.8,182.5,102.6z"/>
			<path class="st9" d="M140.9,88.5c13.9,11.2,11.9,36.8,11.9,36.8s-24.6,7.5-38.5-3.6s-11.9-36.8-11.9-36.8S127,77.4,140.9,88.5z"
				/>
			<g>
				<g>
					<path class="st3" d="M293.5,197.4c-0.1-1.5-0.1-2.9-0.4-4.4l-0.3-2.2c-0.1-0.7-0.3-1.5-0.4-2.2c-0.2-0.7-0.3-1.5-0.5-2.2
						l-0.6-2.2c-0.2-0.7-0.4-1.5-0.6-2.2l-0.7-2.2c-0.5-1.5-1-2.9-1.6-4.3l-0.6-1.4l-0.6-1.4l-1.2-2.8c-0.6-1.4-1.3-2.8-2-4.1
						l-2.2-4c-0.7-1.1-1.4-2.2-2-3.3c-0.7-1.1-1.4-2.2-2.1-3.3c-0.7-1.1-1.4-2.2-2.2-3.2c-0.7-1.1-1.5-2.1-2.2-3.2
						c-0.8-1.2-1.7-2.4-2.7-3.6l-2.8-3.6c-0.3-0.4-0.6-0.4-1.1-0.2c-3.8,1.4-6.7,0.7-9.3-0.9c-1.5-0.9-2.6-2.2-3.6-3.6
						c-0.6-0.8-1.2-1.4-1.8-2.2c-1.6-2-3.3-3.9-5-5.8c-2-2.2-3.9-4.4-6-6.6c-1.5-1.6-3.1-3.2-4.6-4.7c-0.1-0.1-0.2-0.3-0.4-0.4
						c-0.2-0.2-0.1-0.3,0.1-0.6c0.2-0.3,0.4-0.4,0.6-0.2c0.5,0.3,1,0.8,1.5,1.1c1.8,1.4,3.5,2.8,5.3,4.3c2.1,1.7,4.2,3.5,6.2,5.3
						c1.1,1,2.2,2,3.3,3c0.7,0.6,1.3,1.2,2,1.9c0.3,0.3,0.6,0.4,1,0.1c0.4-0.3,0.4-0.8,0.1-1.1c-0.8-1-1.7-2.1-2.5-3.1
						c-1.9-2.3-3.9-4.5-5.9-6.7c-1.7-1.9-3.4-3.8-5.2-5.6c-0.9-0.9-1.8-1.8-2.6-2.7c-0.2-0.2-0.3-0.3,0-0.7c0.3-0.4,0.5-0.3,0.7-0.1
						c0.8,0.6,1.7,1.3,2.5,1.9c2.6,2.1,5.2,4.3,7.8,6.6c2.8,2.4,5.6,4.9,8.2,7.6c0.3,0.3,0.7,0.7,1.2,0.7c0.4,0,0.6-0.1,0.7-0.5
						c0-0.3,0-0.6-0.2-0.8c-1.6-2-3.2-4.1-4.9-6.1c-1.8-2.2-3.7-4.4-5.6-6.5c-1.5-1.7-3.1-3.4-4.7-5.1c-0.6-0.6-1.1-1.2-1.7-1.8
						c-0.2-0.2-0.2-0.4,0-0.7c0.3-0.3,0.5-0.3,0.7-0.1c0.8,0.6,1.5,1.2,2.2,1.8c2.4,2,4.8,4.1,7.1,6.2c2.4,2.2,4.8,4.5,7.2,6.7
						c0.7,0.7,1.4,1.4,2.2,2.1c0.1,0.1,0.1,0.2,0.2,0.2c0.3,0.2,0.6,0.2,0.9,0c0.3-0.3,0.4-0.6,0.2-0.9c-0.3-0.5-0.7-1-1.1-1.5
						c-2.1-2.6-4.2-5.2-6.4-7.8c-1.4-1.6-2.8-3.2-4.3-4.8c-1.7-1.8-3.3-3.6-5.1-5.5c-0.2-0.2-0.3-0.5,0-0.8c0.3-0.3,0.5-0.2,0.8,0
						c2.2,1.7,4.2,3.4,6.2,5.1c3,2.6,5.9,5.2,8.7,8c2.9,2.9,5.8,5.9,8.4,9c1.2,1.4,2.2,2.9,2.6,4.8c0.4,2.1-0.2,4.2-1.2,6.2
						c-0.3,0.5-0.3,0.9,0.1,1.3c4.4,5.5,8.6,11.1,12.5,17c1.2,1.9,2.5,3.9,3.7,5.8c2.1,3.3,4.1,6.7,5.9,10.2
						c0.7,1.4,1.4,2.9,2.1,4.3c0.7,1.5,1.3,2.9,1.9,4.4c0.6,1.6,1.2,3.2,1.8,4.8c0.5,1.7,1,3.3,1.4,5c0.3,1.7,0.8,3.3,1.1,5.1
						l0.4,2.6l0.2,1.3l0.1,1.3c0,0.9,0,1.9-0.1,2.8c-0.1,0.9-0.5,1.8-0.9,2.7c-0.1,0.3-0.3,0.5-0.5,0.7c-0.8,1-1.8,1.7-3.4,1.6
						c-1.8-0.1-3.2-0.7-4.1-1.9c-0.4-0.5-0.6-1-0.8-1.5c-0.2-0.5-0.3-1.1-0.5-1.6c-0.2-0.7-0.3-1.5-0.4-2.2l-0.1-1.1
						C293.6,198.1,293.6,197.7,293.5,197.4z"/>
				</g>
			</g>
			<g>
				<g>
					<path class="st3" d="M49.6,198.9c-0.9-5.8-1.5-11.8-1.4-17.7c0-1.5,0.1-3.1,0.2-4.6c0-0.8,0.1-1.5,0.1-2.3l0.3-2.3
						c0.8-6,1.8-12,3.5-17.8c0.2-0.7,0.1-1.1-0.4-1.6c-1.6-1.6-2.7-3.5-3.4-5.6c-0.7-2.1-0.9-4.3-0.9-6.7c0.2-4.8,1.5-9.5,3.9-13.8
						c2.2-4.2,4.8-8.1,8.1-11.4c2.8-2.9,6.1-5.3,9.9-6.5c1.8-0.6,3.7-0.8,5.5-0.6c3.1,0.2,5,2,6.3,4.5c1.3,2.5,1.6,5.1,1.5,7.7
						c-0.1,4.4-1.1,8.4-2.3,12.3c-1,3.2-2.2,6.2-3.7,9.1c-2,4-4.4,7.5-8.2,10.4c-2.4,1.8-5.1,3-8.4,3.3c-0.4,0-0.6,0.2-0.7,0.6
						c-1.4,5-2.3,10-2.8,15.1c-0.1,1.5-0.3,3-0.4,4.5l-0.2,4.5c0,2.1,0.1,4.2,0.1,6.2l0.2,3.1c0.1,1,0.1,2.1,0.3,3.1l0.6,3.8
						c0.1,0.6,0.2,1.2,0.4,1.9L58,200c0.3,1.1,0.5,2.2,0.8,3.2l1,3.2c0.6,2.1,1.6,4.1,2.4,6.2c0.6,1.5,1.4,2.9,2.1,4.4l1.1,2.2
						c0.4,0.7,0.8,1.4,1.2,2.1l1.8,3l0.4,0.7l0.5,0.7l1,1.4l2,2.8c0.7,0.9,1.5,1.8,2.2,2.7c1.3,1.6,2.6,3.2,3.7,5
						c0.8,1.4,1.3,2.9,1.1,4.6c-0.3,2.8-2.9,4.9-5.7,4.1c-1.8-0.5-3.2-1.6-4.5-2.9c-0.7-0.6-1.2-1.3-1.7-2c-0.5-0.7-1-1.4-1.5-2.1
						c-1-1.4-2-2.9-2.8-4.4c-1-1.7-2.1-3.4-3.1-5.1l-2.8-5.5c-0.9-1.9-1.6-3.8-2.4-5.7c-0.6-1.4-1-2.9-1.6-4.4l-0.7-2.2l-0.4-1.1
						l-0.3-1.1c-0.5-1.8-0.9-3.6-1.3-5.4L49.6,198.9z"/>
				</g>
			</g>
			<g>
				<path class="st10" d="M160.9,300.9c8.9,1.2,17.4,1.6,25.3,1.2"/>
				<path class="st10" d="M272.1,260.1c11.5-13.6,16.6-25,16.6-25"/>
				<path class="st10" d="M199.4,300.2c27.8-4.8,48.5-17.9,63-31"/>
			</g>
		</g>
	</g>
</g>
</svg>
