<svg xmlns="http://www.w3.org/2000/svg" xml:space="preserve" id="Layer_1" x="0" y="0" viewBox="0 0 353.6 353.6"><style>.st3{fill:#052256}.st7{fill:#fea21d}</style><linearGradient id="SVGID_1_" x1="-741.753" x2="-741.753" y1="-559.851" y2="-560.851" gradientUnits="userSpaceOnUse"><stop offset="0" style="stop-color:#656565"/><stop offset=".618" style="stop-color:#1b1b1b"/><stop offset=".629" style="stop-color:#545454"/><stop offset=".983" style="stop-color:#3e3e3e"/></linearGradient><circle cx="176.8" cy="176.8" r="172.5" style="fill:#f2f2f2"/><circle cx="176.8" cy="176.8" r="148.7" style="fill:#fff"/><path d="M176.8 30.3c80.9 0 146.5 65.6 146.5 146.5s-65.6 146.5-146.5 146.5S30.3 257.7 30.3 176.8 95.9 30.3 176.8 30.3m0-4.5C136.5 25.8 98.6 41.5 70 70c-28.5 28.5-44.2 66.4-44.2 106.8S41.5 255 70 283.5s66.4 44.2 106.8 44.2S255 312 283.6 283.5c28.5-28.5 44.2-66.4 44.2-106.8S312.1 98.6 283.5 70C255 41.5 217.1 25.8 176.8 25.8" style="fill:#ccc"/><path d="M68.6 155.4c-10.9 57.3 29.2 113 89.4 124.4s117.8-25.9 128.6-83.3z" class="st3"/><path d="M94.5 160.3c-10.8 57.4 23.4 112 76.5 122 53 10 104.8-28.4 115.6-85.7z" style="fill:#164a89"/><ellipse cx="178.5" cy="173.2" rx="29.4" ry="110.8" style="fill:#fcfdff" transform="rotate(-79.717 178.499 173.232)"/><ellipse cx="178.5" cy="173.2" rx="26.2" ry="98.7" style="fill:#dd8510" transform="rotate(-79.717 178.499 173.232)"/><ellipse cx="183.4" cy="174.1" class="st7" rx="26.2" ry="93.7" transform="rotate(-79.717 183.354 174.112)"/><circle cx="176.7" cy="150.5" r="11.4" class="st7"/><circle cx="170.6" cy="148.7" r="11.4" class="st7"/><path d="M106.8 142.3c-.5-5.5 3-10.7 8.6-12.1 6.1-1.5 12.2 2.2 13.7 8.3 0 .1 0 .2.1.3 1.5-2.2 3.8-4 6.7-4.7 3.8-.9 7.7.2 10.4 2.6q.9-.45 1.8-.6c4.4-1.1 8.9.6 11.6 3.9.3-.1.7-.2 1-.3 2.4-.6 4.9-.4 7 .5.4-.5.9-.9 1.4-1.4 1.1-5.1 5.6-9 11.1-9 6.3 0 11.4 5.1 11.4 11.4v.3c2-1.8 4.7-2.9 7.6-2.9 3.9 0 7.4 2 9.4 5 .6-.1 1.3-.2 1.9-.2 4.6 0 8.5 2.7 10.3 6.6.4 0 .7-.1 1.1-.1 2.5 0 4.8.8 6.7 2.2 1.9-1.4 4.2-2.2 6.7-2.2 6.3 0 11.4 5.1 11.4 11.4s-5.1 11.4-11.4 11.4c-2.5 0-4.8-.8-6.7-2.2-1.9 1.4-4.2 2.2-6.7 2.2-2.9 0-5.5-1.1-7.5-2.9-2 1.8-4.6 2.9-7.5 2.9-6.3 0-11.4-5.1-11.4-11.4v-.6c-4.5-1.5-7.7-5.8-7.7-10.7v-.3l-.3.3c-.9 4.1-4 7.6-8.4 8.6-2.4.6-4.9.4-7-.5-1.5 1.8-3.5 3.1-6 3.7-4.4 1.1-8.9-.6-11.6-3.9-.3.1-.7.2-1 .3-3.8.9-7.7-.2-10.4-2.6q-.9.45-1.8.6c-6.1 1.5-12.2-2.2-13.7-8.3 0-.1 0-.2-.1-.3 0 .1-.1.1-.1.2.5 5.5-3 10.7-8.6 12.1-6.1 1.5-12.2-2.2-13.7-8.3-.9-3.3-.1-6.7 1.7-9.3" class="st7"/><path d="M182.5 102.6c-6 16.8-30.8 23.3-30.8 23.3s-15.2-20.7-9.2-37.5 30.8-23.3 30.8-23.3 15.1 20.7 9.2 37.5" style="fill:#a4de14"/><path d="M140.9 88.5c13.9 11.2 11.9 36.8 11.9 36.8s-24.6 7.5-38.5-3.6-11.9-36.8-11.9-36.8 24.6-7.5 38.5 3.6" style="fill:#78b407"/><path d="M293.5 197.4c-.1-1.5-.1-2.9-.4-4.4l-.3-2.2c-.1-.7-.3-1.5-.4-2.2-.2-.7-.3-1.5-.5-2.2l-.6-2.2c-.2-.7-.4-1.5-.6-2.2l-.7-2.2c-.5-1.5-1-2.9-1.6-4.3l-.6-1.4-.6-1.4-1.2-2.8c-.6-1.4-1.3-2.8-2-4.1l-2.2-4c-.7-1.1-1.4-2.2-2-3.3l-2.1-3.3c-.7-1.1-1.4-2.2-2.2-3.2-.7-1.1-1.5-2.1-2.2-3.2q-1.2-1.8-2.7-3.6l-2.8-3.6c-.3-.4-.6-.4-1.1-.2-3.8 1.4-6.7.7-9.3-.9-1.5-.9-2.6-2.2-3.6-3.6-.6-.8-1.2-1.4-1.8-2.2-1.6-2-3.3-3.9-5-5.8-2-2.2-3.9-4.4-6-6.6-1.5-1.6-3.1-3.2-4.6-4.7-.1-.1-.2-.3-.4-.4-.2-.2-.1-.3.1-.6s.4-.4.6-.2c.5.3 1 .8 1.5 1.1 1.8 1.4 3.5 2.8 5.3 4.3 2.1 1.7 4.2 3.5 6.2 5.3l3.3 3c.7.6 1.3 1.2 2 1.9.3.3.6.4 1 .1s.4-.8.1-1.1c-.8-1-1.7-2.1-2.5-3.1-1.9-2.3-3.9-4.5-5.9-6.7-1.7-1.9-3.4-3.8-5.2-5.6-.9-.9-1.8-1.8-2.6-2.7-.2-.2-.3-.3 0-.7s.5-.3.7-.1c.8.6 1.7 1.3 2.5 1.9q3.9 3.15 7.8 6.6c2.8 2.4 5.6 4.9 8.2 7.6.3.3.7.7 1.2.7.4 0 .6-.1.7-.5 0-.3 0-.6-.2-.8-1.6-2-3.2-4.1-4.9-6.1-1.8-2.2-3.7-4.4-5.6-6.5-1.5-1.7-3.1-3.4-4.7-5.1-.6-.6-1.1-1.2-1.7-1.8-.2-.2-.2-.4 0-.7.3-.3.5-.3.7-.1.8.6 1.5 1.2 2.2 1.8 2.4 2 4.8 4.1 7.1 6.2 2.4 2.2 4.8 4.5 7.2 6.7.7.7 1.4 1.4 2.2 2.1.1.1.1.2.2.2q.45.3.9 0c.3-.3.4-.6.2-.9-.3-.5-.7-1-1.1-1.5-2.1-2.6-4.2-5.2-6.4-7.8-1.4-1.6-2.8-3.2-4.3-4.8-1.7-1.8-3.3-3.6-5.1-5.5-.2-.2-.3-.5 0-.8s.5-.2.8 0c2.2 1.7 4.2 3.4 6.2 5.1 3 2.6 5.9 5.2 8.7 8 2.9 2.9 5.8 5.9 8.4 9 1.2 1.4 2.2 2.9 2.6 4.8.4 2.1-.2 4.2-1.2 6.2-.3.5-.3.9.1 1.3 4.4 5.5 8.6 11.1 12.5 17 1.2 1.9 2.5 3.9 3.7 5.8 2.1 3.3 4.1 6.7 5.9 10.2.7 1.4 1.4 2.9 2.1 4.3.7 1.5 1.3 2.9 1.9 4.4l1.8 4.8c.5 1.7 1 3.3 1.4 5 .3 1.7.8 3.3 1.1 5.1l.4 2.6.2 1.3.1 1.3c0 .9 0 1.9-.1 2.8s-.5 1.8-.9 2.7c-.1.3-.3.5-.5.7-.8 1-1.8 1.7-3.4 1.6-1.8-.1-3.2-.7-4.1-1.9-.4-.5-.6-1-.8-1.5s-.3-1.1-.5-1.6c-.2-.7-.3-1.5-.4-2.2l-.1-1.1c0-.6 0-1-.1-1.3m-243.9 1.5c-.9-5.8-1.5-11.8-1.4-17.7 0-1.5.1-3.1.2-4.6 0-.8.1-1.5.1-2.3l.3-2.3c.8-6 1.8-12 3.5-17.8.2-.7.1-1.1-.4-1.6-1.6-1.6-2.7-3.5-3.4-5.6s-.9-4.3-.9-6.7c.2-4.8 1.5-9.5 3.9-13.8 2.2-4.2 4.8-8.1 8.1-11.4 2.8-2.9 6.1-5.3 9.9-6.5 1.8-.6 3.7-.8 5.5-.6 3.1.2 5 2 6.3 4.5s1.6 5.1 1.5 7.7c-.1 4.4-1.1 8.4-2.3 12.3-1 3.2-2.2 6.2-3.7 9.1-2 4-4.4 7.5-8.2 10.4-2.4 1.8-5.1 3-8.4 3.3-.4 0-.6.2-.7.6-1.4 5-2.3 10-2.8 15.1-.1 1.5-.3 3-.4 4.5l-.2 4.5c0 2.1.1 4.2.1 6.2l.2 3.1c.1 1 .1 2.1.3 3.1l.6 3.8c.1.6.2 1.2.4 1.9l.3 1.9c.3 1.1.5 2.2.8 3.2l1 3.2c.6 2.1 1.6 4.1 2.4 6.2.6 1.5 1.4 2.9 2.1 4.4l1.1 2.2 1.2 2.1 1.8 3 .4.7.5.7 1 1.4 2 2.8c.7.9 1.5 1.8 2.2 2.7 1.3 1.6 2.6 3.2 3.7 5 .8 1.4 1.3 2.9 1.1 4.6-.3 2.8-2.9 4.9-5.7 4.1-1.8-.5-3.2-1.6-4.5-2.9-.7-.6-1.2-1.3-1.7-2l-1.5-2.1c-1-1.4-2-2.9-2.8-4.4-1-1.7-2.1-3.4-3.1-5.1l-2.8-5.5c-.9-1.9-1.6-3.8-2.4-5.7-.6-1.4-1-2.9-1.6-4.4l-.7-2.2-.4-1.1-.3-1.1c-.5-1.8-.9-3.6-1.3-5.4z" class="st3"/><path d="M160.9 300.9c8.9 1.2 17.4 1.6 25.3 1.2m85.9-42c11.5-13.6 16.6-25 16.6-25m-89.3 65.1c27.8-4.8 48.5-17.9 63-31" style="fill:none;stroke:#fea21d;stroke-width:4.4677;stroke-linecap:round;stroke-miterlimit:10"/></svg>